<svg xmlns="http://www.w3.org/2000/svg" xmlns:xlink="http://www.w3.org/1999/xlink" width="90" zoomAndPan="magnify" viewBox="0 0 67.5 67.499996" height="90" preserveAspectRatio="xMidYMid meet" version="1.0"><defs><g/><clipPath id="ffbb30e2c3"><path d="M 11.6875 29.25 L 47.480469 29.25 L 47.480469 36.191406 L 11.6875 36.191406 Z M 11.6875 29.25 " clip-rule="nonzero"/></clipPath></defs><g fill="#15007b" fill-opacity="1"><g transform="translate(29.585147, 55.105938)"><g><path d="M 1.921875 0 L 1.921875 -0.546875 L 3.078125 -0.546875 C 4.367188 -0.546875 5.367188 -0.835938 6.078125 -1.421875 C 6.796875 -2.015625 7.15625 -2.988281 7.15625 -4.34375 L 7.15625 -35.125 C 7.15625 -36.414062 6.796875 -37.34375 6.078125 -37.90625 C 5.367188 -38.476562 4.367188 -38.765625 3.078125 -38.765625 L 1.921875 -38.765625 L 1.921875 -39.3125 L 17.5625 -39.3125 C 22.445312 -39.3125 26.070312 -38.429688 28.4375 -36.671875 C 30.800781 -34.910156 31.984375 -32.378906 31.984375 -29.078125 C 31.984375 -26.984375 31.570312 -25.253906 30.75 -23.890625 C 29.925781 -22.535156 28.851562 -21.441406 27.53125 -20.609375 C 26.207031 -19.785156 24.832031 -19.175781 23.40625 -18.78125 L 30.671875 -7.109375 C 31.804688 -5.304688 32.738281 -3.9375 33.46875 -3 C 34.207031 -2.0625 34.851562 -1.414062 35.40625 -1.0625 C 35.957031 -0.71875 36.507812 -0.546875 37.0625 -0.546875 L 37.21875 -0.546875 L 37.21875 0 L 36.125 0 C 33.84375 0 32.039062 -0.117188 30.71875 -0.359375 C 29.40625 -0.597656 28.320312 -1.070312 27.46875 -1.78125 C 26.625 -2.5 25.765625 -3.578125 24.890625 -5.015625 L 16.796875 -18.328125 L 13.546875 -18.328125 L 13.546875 -4.34375 C 13.546875 -2.988281 13.898438 -2.015625 14.609375 -1.421875 C 15.328125 -0.835938 16.332031 -0.546875 17.625 -0.546875 L 18.78125 -0.546875 L 18.78125 0 Z M 13.546875 -18.890625 L 17.234375 -18.890625 C 20.054688 -18.890625 22.082031 -19.648438 23.3125 -21.171875 C 24.539062 -22.691406 25.15625 -25.195312 25.15625 -28.6875 C 25.15625 -32.25 24.53125 -34.816406 23.28125 -36.390625 C 22.039062 -37.972656 19.988281 -38.765625 17.125 -38.765625 L 13.546875 -38.765625 Z M 13.546875 -18.890625 "/></g></g></g><g fill="#15007b" fill-opacity="1"><g transform="translate(-1.711606, 55.105938)"><g><path d="M 1.921875 0 L 1.921875 -0.546875 L 4.015625 -0.546875 C 5.304688 -0.546875 6.304688 -0.835938 7.015625 -1.421875 C 7.734375 -2.015625 8.09375 -3.007812 8.09375 -4.40625 L 8.09375 -35.125 C 8.09375 -36.414062 7.734375 -37.34375 7.015625 -37.90625 C 6.304688 -38.476562 5.304688 -38.765625 4.015625 -38.765625 L 1.921875 -38.765625 L 1.921875 -39.3125 L 13.59375 -39.3125 L 34.140625 -8.375 L 34.140625 -34.96875 C 34.140625 -36.320312 33.789062 -37.289062 33.09375 -37.875 C 32.394531 -38.46875 31.40625 -38.765625 30.125 -38.765625 L 27.859375 -38.765625 L 27.859375 -39.3125 L 41.015625 -39.3125 L 41.015625 -38.765625 L 38.765625 -38.765625 C 37.484375 -38.765625 36.484375 -38.46875 35.765625 -37.875 C 35.046875 -37.289062 34.6875 -36.300781 34.6875 -34.90625 L 34.6875 0 L 32.59375 0 L 8.640625 -36.0625 L 8.640625 -4.40625 C 8.640625 -3.007812 8.988281 -2.015625 9.6875 -1.421875 C 10.382812 -0.835938 11.378906 -0.546875 12.671875 -0.546875 L 15.140625 -0.546875 L 15.140625 0 Z M 1.921875 0 "/></g></g></g><g clip-path="url(#ffbb30e2c3)"><path fill="#ffffff" d="M 11.6875 29.25 L 47.363281 29.25 L 47.363281 36.171875 L 11.6875 36.171875 Z M 11.6875 29.25 " fill-opacity="1" fill-rule="nonzero"/></g><g fill="#15007b" fill-opacity="1"><g transform="translate(12.667372, 35.504994)"><g><path d="M 3.96875 -1.859375 L 3.96875 -5.59375 L 5.015625 -5.59375 L 5.015625 0 L 3.875 0 L 1.625 -3.65625 L 1.625 0 L 0.578125 0 L 0.578125 -5.59375 L 1.671875 -5.59375 Z M 3.96875 -1.859375 "/></g></g></g><g fill="#15007b" fill-opacity="1"><g transform="translate(18.303885, 35.504994)"><g><path d="M 1.640625 -4.609375 L 0.5625 -4.609375 L 0.5625 -5.59375 L 1.640625 -5.59375 Z M 1.640625 0 L 0.5625 0 L 0.5625 -4.046875 L 1.640625 -4.046875 Z M 1.640625 0 "/></g></g></g><g fill="#15007b" fill-opacity="1"><g transform="translate(20.474176, 35.504994)"><g><path d="M 0.8125 -3.53125 C 1.164062 -3.9375 1.660156 -4.140625 2.296875 -4.140625 C 3.265625 -4.140625 3.867188 -3.710938 4.109375 -2.859375 L 3.046875 -2.671875 C 2.960938 -3.097656 2.71875 -3.3125 2.3125 -3.3125 C 2.039062 -3.3125 1.828125 -3.21875 1.671875 -3.03125 C 1.515625 -2.84375 1.4375 -2.535156 1.4375 -2.109375 C 1.4375 -1.703125 1.503906 -1.378906 1.640625 -1.140625 C 1.773438 -0.898438 2.003906 -0.78125 2.328125 -0.78125 C 2.546875 -0.78125 2.71875 -0.84375 2.84375 -0.96875 C 2.96875 -1.101562 3.054688 -1.300781 3.109375 -1.5625 L 4.15625 -1.375 C 3.9375 -0.394531 3.3125 0.09375 2.28125 0.09375 C 1.664062 0.09375 1.191406 -0.09375 0.859375 -0.46875 C 0.679688 -0.664062 0.546875 -0.898438 0.453125 -1.171875 C 0.367188 -1.453125 0.328125 -1.738281 0.328125 -2.03125 C 0.328125 -2.332031 0.367188 -2.613281 0.453125 -2.875 C 0.535156 -3.132812 0.65625 -3.351562 0.8125 -3.53125 Z M 0.8125 -3.53125 "/></g></g></g><g fill="#15007b" fill-opacity="1"><g transform="translate(24.814759, 35.504994)"><g><path d="M 2.40625 -4.140625 C 2.84375 -4.140625 3.21875 -4.039062 3.53125 -3.84375 C 3.851562 -3.644531 4.09375 -3.382812 4.25 -3.0625 C 4.414062 -2.738281 4.5 -2.398438 4.5 -2.046875 C 4.5 -1.671875 4.410156 -1.316406 4.234375 -0.984375 C 4.066406 -0.660156 3.828125 -0.398438 3.515625 -0.203125 C 3.203125 -0.00390625 2.832031 0.09375 2.40625 0.09375 C 2.050781 0.09375 1.710938 0.0195312 1.390625 -0.125 C 1.078125 -0.28125 0.816406 -0.519531 0.609375 -0.84375 C 0.410156 -1.164062 0.3125 -1.578125 0.3125 -2.078125 C 0.3125 -2.429688 0.390625 -2.765625 0.546875 -3.078125 C 0.710938 -3.390625 0.953125 -3.644531 1.265625 -3.84375 C 1.578125 -4.039062 1.957031 -4.140625 2.40625 -4.140625 Z M 1.421875 -2.03125 C 1.421875 -1.625 1.515625 -1.3125 1.703125 -1.09375 C 1.890625 -0.882812 2.125 -0.78125 2.40625 -0.78125 C 2.675781 -0.78125 2.90625 -0.882812 3.09375 -1.09375 C 3.289062 -1.300781 3.390625 -1.613281 3.390625 -2.03125 C 3.390625 -2.414062 3.296875 -2.71875 3.109375 -2.9375 C 2.929688 -3.15625 2.691406 -3.265625 2.390625 -3.265625 C 2.117188 -3.265625 1.890625 -3.15625 1.703125 -2.9375 C 1.515625 -2.726562 1.421875 -2.425781 1.421875 -2.03125 Z M 1.421875 -2.03125 "/></g></g></g><g fill="#15007b" fill-opacity="1"><g transform="translate(29.584716, 35.504994)"><g/></g></g><g fill="#15007b" fill-opacity="1"><g transform="translate(31.755007, 35.504994)"><g><path d="M 4.328125 -5.421875 C 4.554688 -5.316406 4.75 -5.140625 4.90625 -4.890625 C 5.0625 -4.640625 5.140625 -4.351562 5.140625 -4.03125 C 5.140625 -3.613281 5.007812 -3.257812 4.75 -2.96875 C 4.5 -2.6875 4.140625 -2.519531 3.671875 -2.46875 C 3.867188 -2.320312 4.019531 -2.203125 4.125 -2.109375 C 4.238281 -2.023438 4.359375 -1.898438 4.484375 -1.734375 C 4.609375 -1.566406 4.765625 -1.332031 4.953125 -1.03125 L 5.59375 0 L 4.25 0 L 3.34375 -1.359375 C 3.132812 -1.660156 2.972656 -1.875 2.859375 -2 C 2.753906 -2.132812 2.640625 -2.222656 2.515625 -2.265625 C 2.390625 -2.316406 2.210938 -2.34375 1.984375 -2.34375 L 1.703125 -2.34375 L 1.703125 0 L 0.578125 0 L 0.578125 -5.59375 L 3.015625 -5.59375 C 3.285156 -5.59375 3.523438 -5.582031 3.734375 -5.5625 C 3.953125 -5.539062 4.148438 -5.492188 4.328125 -5.421875 Z M 3.53125 -3.296875 C 3.664062 -3.335938 3.773438 -3.414062 3.859375 -3.53125 C 3.941406 -3.644531 3.984375 -3.785156 3.984375 -3.953125 C 3.984375 -4.253906 3.851562 -4.460938 3.59375 -4.578125 C 3.53125 -4.609375 3.445312 -4.628906 3.34375 -4.640625 C 3.25 -4.648438 3.082031 -4.65625 2.84375 -4.65625 L 1.703125 -4.65625 L 1.703125 -3.234375 L 2.6875 -3.234375 C 3.09375 -3.234375 3.375 -3.253906 3.53125 -3.296875 Z M 3.53125 -3.296875 "/></g></g></g><g fill="#15007b" fill-opacity="1"><g transform="translate(37.39152, 35.504994)"><g><path d="M 2.109375 -4.140625 C 2.753906 -4.140625 3.234375 -3.929688 3.546875 -3.515625 C 3.867188 -3.097656 4.03125 -2.5 4.03125 -1.71875 L 1.34375 -1.71875 C 1.351562 -1.445312 1.429688 -1.210938 1.578125 -1.015625 C 1.734375 -0.828125 1.953125 -0.734375 2.234375 -0.734375 C 2.410156 -0.734375 2.550781 -0.773438 2.65625 -0.859375 C 2.769531 -0.953125 2.851562 -1.097656 2.90625 -1.296875 L 3.984375 -1.109375 C 3.847656 -0.710938 3.628906 -0.410156 3.328125 -0.203125 C 3.023438 -0.00390625 2.65625 0.09375 2.21875 0.09375 C 1.5625 0.09375 1.066406 -0.101562 0.734375 -0.5 C 0.578125 -0.675781 0.457031 -0.898438 0.375 -1.171875 C 0.289062 -1.453125 0.25 -1.726562 0.25 -2 C 0.25 -2.375 0.316406 -2.722656 0.453125 -3.046875 C 0.585938 -3.367188 0.789062 -3.628906 1.0625 -3.828125 C 1.34375 -4.035156 1.691406 -4.140625 2.109375 -4.140625 Z M 1.375 -2.375 L 2.96875 -2.375 C 2.96875 -2.707031 2.882812 -2.945312 2.71875 -3.09375 C 2.5625 -3.25 2.378906 -3.328125 2.171875 -3.328125 C 1.921875 -3.328125 1.722656 -3.234375 1.578125 -3.046875 C 1.441406 -2.867188 1.375 -2.644531 1.375 -2.375 Z M 1.375 -2.375 "/></g></g></g><g fill="#15007b" fill-opacity="1"><g transform="translate(41.732103, 35.504994)"><g><path d="M 2.140625 -4.140625 C 2.660156 -4.140625 3.046875 -4.070312 3.296875 -3.9375 C 3.546875 -3.8125 3.703125 -3.640625 3.765625 -3.421875 C 3.828125 -3.203125 3.859375 -2.914062 3.859375 -2.5625 L 3.84375 -1.390625 C 3.84375 -1.015625 3.859375 -0.742188 3.890625 -0.578125 C 3.921875 -0.410156 3.984375 -0.21875 4.078125 0 L 3.03125 0 C 3 -0.0625 2.953125 -0.210938 2.890625 -0.453125 C 2.691406 -0.265625 2.488281 -0.125 2.28125 -0.03125 C 2.082031 0.0507812 1.863281 0.09375 1.625 0.09375 C 1.226562 0.09375 0.90625 -0.015625 0.65625 -0.234375 C 0.40625 -0.460938 0.28125 -0.753906 0.28125 -1.109375 C 0.28125 -1.398438 0.351562 -1.632812 0.5 -1.8125 C 0.65625 -1.988281 0.835938 -2.113281 1.046875 -2.1875 C 1.265625 -2.269531 1.519531 -2.335938 1.8125 -2.390625 C 2.257812 -2.472656 2.585938 -2.554688 2.796875 -2.640625 L 2.796875 -2.8125 C 2.796875 -2.988281 2.742188 -3.117188 2.640625 -3.203125 C 2.535156 -3.285156 2.347656 -3.328125 2.078125 -3.328125 C 1.859375 -3.328125 1.695312 -3.28125 1.59375 -3.1875 C 1.488281 -3.101562 1.410156 -2.976562 1.359375 -2.8125 L 0.390625 -3 C 0.492188 -3.394531 0.679688 -3.679688 0.953125 -3.859375 C 1.222656 -4.046875 1.617188 -4.140625 2.140625 -4.140625 Z M 2.125 -1.78125 L 1.953125 -1.734375 C 1.554688 -1.648438 1.359375 -1.476562 1.359375 -1.21875 C 1.359375 -1.0625 1.410156 -0.929688 1.515625 -0.828125 C 1.628906 -0.722656 1.773438 -0.671875 1.953125 -0.671875 C 2.085938 -0.671875 2.222656 -0.707031 2.359375 -0.78125 C 2.503906 -0.851562 2.617188 -0.945312 2.703125 -1.0625 C 2.765625 -1.175781 2.796875 -1.363281 2.796875 -1.625 L 2.796875 -1.953125 C 2.597656 -1.890625 2.375 -1.832031 2.125 -1.78125 Z M 2.125 -1.78125 "/></g></g></g><g fill="#15007b" fill-opacity="1"><g transform="translate(46.072685, 35.504994)"><g><path d="M 1.640625 0 L 0.5625 0 L 0.5625 -5.59375 L 1.640625 -5.59375 Z M 1.640625 0 "/></g></g></g></svg>