<svg xmlns="http://www.w3.org/2000/svg" xmlns:xlink="http://www.w3.org/1999/xlink" width="90" zoomAndPan="magnify" viewBox="0 0 67.5 67.499996" height="90" preserveAspectRatio="xMidYMid meet" version="1.0"><defs><g/><clipPath id="9d0dadf387"><path d="M 7.425781 20.597656 L 48.5625 20.597656 L 48.5625 32.398438 L 7.425781 32.398438 Z M 7.425781 20.597656 " clip-rule="nonzero"/></clipPath></defs><g fill="#15007b" fill-opacity="1"><g transform="translate(25.544613, 55.105938)"><g><path d="M 1.921875 0 L 1.921875 -0.546875 L 3.078125 -0.546875 C 4.367188 -0.546875 5.367188 -0.835938 6.078125 -1.421875 C 6.796875 -2.015625 7.15625 -2.988281 7.15625 -4.34375 L 7.15625 -35.125 C 7.15625 -36.414062 6.796875 -37.34375 6.078125 -37.90625 C 5.367188 -38.476562 4.367188 -38.765625 3.078125 -38.765625 L 1.921875 -38.765625 L 1.921875 -39.3125 L 17.5625 -39.3125 C 22.445312 -39.3125 26.070312 -38.429688 28.4375 -36.671875 C 30.800781 -34.910156 31.984375 -32.378906 31.984375 -29.078125 C 31.984375 -26.984375 31.570312 -25.253906 30.75 -23.890625 C 29.925781 -22.535156 28.851562 -21.441406 27.53125 -20.609375 C 26.207031 -19.785156 24.832031 -19.175781 23.40625 -18.78125 L 30.671875 -7.109375 C 31.804688 -5.304688 32.738281 -3.9375 33.46875 -3 C 34.207031 -2.0625 34.851562 -1.414062 35.40625 -1.0625 C 35.957031 -0.71875 36.507812 -0.546875 37.0625 -0.546875 L 37.21875 -0.546875 L 37.21875 0 L 36.125 0 C 33.84375 0 32.039062 -0.117188 30.71875 -0.359375 C 29.40625 -0.597656 28.320312 -1.070312 27.46875 -1.78125 C 26.625 -2.5 25.765625 -3.578125 24.890625 -5.015625 L 16.796875 -18.328125 L 13.546875 -18.328125 L 13.546875 -4.34375 C 13.546875 -2.988281 13.898438 -2.015625 14.609375 -1.421875 C 15.328125 -0.835938 16.332031 -0.546875 17.625 -0.546875 L 18.78125 -0.546875 L 18.78125 0 Z M 13.546875 -18.890625 L 17.234375 -18.890625 C 20.054688 -18.890625 22.082031 -19.648438 23.3125 -21.171875 C 24.539062 -22.691406 25.15625 -25.195312 25.15625 -28.6875 C 25.15625 -32.25 24.53125 -34.816406 23.28125 -36.390625 C 22.039062 -37.972656 19.988281 -38.765625 17.125 -38.765625 L 13.546875 -38.765625 Z M 13.546875 -18.890625 "/></g></g></g><g fill="#15007b" fill-opacity="1"><g transform="translate(-1.711606, 55.105938)"><g><path d="M 1.921875 0 L 1.921875 -0.546875 L 4.015625 -0.546875 C 5.304688 -0.546875 6.304688 -0.835938 7.015625 -1.421875 C 7.734375 -2.015625 8.09375 -3.007812 8.09375 -4.40625 L 8.09375 -35.125 C 8.09375 -36.414062 7.734375 -37.34375 7.015625 -37.90625 C 6.304688 -38.476562 5.304688 -38.765625 4.015625 -38.765625 L 1.921875 -38.765625 L 1.921875 -39.3125 L 13.59375 -39.3125 L 34.140625 -8.375 L 34.140625 -34.96875 C 34.140625 -36.320312 33.789062 -37.289062 33.09375 -37.875 C 32.394531 -38.46875 31.40625 -38.765625 30.125 -38.765625 L 27.859375 -38.765625 L 27.859375 -39.3125 L 41.015625 -39.3125 L 41.015625 -38.765625 L 38.765625 -38.765625 C 37.484375 -38.765625 36.484375 -38.46875 35.765625 -37.875 C 35.046875 -37.289062 34.6875 -36.300781 34.6875 -34.90625 L 34.6875 0 L 32.59375 0 L 8.640625 -36.0625 L 8.640625 -4.40625 C 8.640625 -3.007812 8.988281 -2.015625 9.6875 -1.421875 C 10.382812 -0.835938 11.378906 -0.546875 12.671875 -0.546875 L 15.140625 -0.546875 L 15.140625 0 Z M 1.921875 0 "/></g></g></g><g clip-path="url(#9d0dadf387)"><path fill="#ffffff" d="M 7.425781 20.597656 L 48.425781 20.597656 L 48.425781 32.3125 L 7.425781 32.3125 Z M 7.425781 20.597656 " fill-opacity="1" fill-rule="nonzero"/></g><g fill="#15007b" fill-opacity="1"><g transform="translate(7.541412, 30.848978)"><g><path d="M 6.527344 -8.703125 L 5.769531 -8.703125 L 5.769531 -3.382812 L 5.804688 -1.363281 L 1.695312 -8.703125 L 0.824219 -8.703125 L 0.824219 0 L 1.585938 0 L 1.585938 -5.324219 L 1.539062 -7.34375 L 5.65625 0 L 6.527344 0 Z M 6.527344 -8.703125 "/></g></g></g><g fill="#15007b" fill-opacity="1"><g transform="translate(14.895891, 30.848978)"><g><path d="M 0.816406 0 L 1.597656 0 L 1.597656 -5.914062 L 0.816406 -5.914062 Z M 1.707031 -8.3125 L 0.703125 -8.3125 L 0.703125 -7.308594 L 1.707031 -7.308594 Z M 1.707031 -8.3125 "/></g></g></g><g fill="#15007b" fill-opacity="1"><g transform="translate(17.306473, 30.848978)"><g><path d="M 1.339844 -2.824219 L 1.339844 -3.089844 C 1.339844 -4.441406 1.851562 -5.335938 3.023438 -5.335938 C 4.097656 -5.335938 4.53125 -4.652344 4.53125 -3.75 L 5.277344 -3.75 L 5.277344 -3.972656 C 5.277344 -4.933594 4.640625 -6.039062 3.011719 -6.039062 C 1.285156 -6.039062 0.546875 -4.730469 0.546875 -3.089844 L 0.546875 -2.824219 C 0.546875 -1.183594 1.285156 0.121094 3.011719 0.121094 C 4.640625 0.121094 5.277344 -0.9375 5.277344 -1.875 L 5.277344 -2.054688 L 4.53125 -2.054688 C 4.53125 -1.285156 4.128906 -0.582031 3.023438 -0.582031 C 1.851562 -0.582031 1.339844 -1.472656 1.339844 -2.824219 Z M 1.339844 -2.824219 "/></g></g></g><g fill="#15007b" fill-opacity="1"><g transform="translate(23.132022, 30.848978)"><g><path d="M 3.035156 0.121094 C 4.777344 0.121094 5.523438 -1.183594 5.523438 -2.824219 L 5.523438 -3.089844 C 5.523438 -4.730469 4.777344 -6.039062 3.035156 -6.039062 C 1.292969 -6.039062 0.546875 -4.730469 0.546875 -3.089844 L 0.546875 -2.824219 C 0.546875 -1.183594 1.292969 0.121094 3.035156 0.121094 Z M 3.035156 -0.582031 C 1.863281 -0.582031 1.339844 -1.472656 1.339844 -2.824219 L 1.339844 -3.089844 C 1.339844 -4.441406 1.863281 -5.335938 3.035156 -5.335938 C 4.207031 -5.335938 4.730469 -4.441406 4.730469 -3.089844 L 4.730469 -2.824219 C 4.730469 -1.472656 4.207031 -0.582031 3.035156 -0.582031 Z M 3.035156 -0.582031 "/></g></g></g><g fill="#15007b" fill-opacity="1"><g transform="translate(29.203098, 30.848978)"><g><path d="M 1.628906 -3.539062 L 3.238281 -3.539062 C 3.371094 -3.539062 3.503906 -3.539062 3.636719 -3.550781 L 5.023438 0 L 5.902344 0 L 4.398438 -3.707031 C 5.222656 -3.972656 5.902344 -4.621094 5.902344 -6.003906 L 5.902344 -6.226562 C 5.902344 -8.234375 4.476562 -8.703125 3.238281 -8.703125 L 0.824219 -8.703125 L 0.824219 0 L 1.628906 0 Z M 1.628906 -4.261719 L 1.628906 -7.980469 L 3.257812 -7.980469 C 4.007812 -7.980469 5.078125 -7.699219 5.078125 -6.203125 L 5.078125 -6.039062 C 5.078125 -4.542969 4.007812 -4.261719 3.257812 -4.261719 Z M 1.628906 -4.261719 "/></g></g></g><g fill="#15007b" fill-opacity="1"><g transform="translate(35.720583, 30.848978)"><g><path d="M 5.523438 -2.632812 L 5.523438 -3.082031 C 5.523438 -4.71875 4.777344 -6.039062 3.046875 -6.039062 C 1.316406 -6.039062 0.546875 -4.71875 0.546875 -3.082031 L 0.546875 -2.835938 C 0.546875 -1.195312 1.316406 0.121094 3.101562 0.121094 C 4.765625 0.121094 5.523438 -0.9375 5.523438 -1.851562 L 5.523438 -1.898438 L 4.777344 -1.898438 C 4.777344 -1.261719 4.285156 -0.535156 3.101562 -0.535156 C 1.917969 -0.535156 1.371094 -1.339844 1.339844 -2.632812 Z M 3.035156 -5.378906 C 4.164062 -5.378906 4.6875 -4.5625 4.730469 -3.28125 L 1.339844 -3.28125 C 1.371094 -4.5625 1.917969 -5.378906 3.035156 -5.378906 Z M 3.035156 -5.378906 "/></g></g></g><g fill="#15007b" fill-opacity="1"><g transform="translate(41.791659, 30.848978)"><g><path d="M 4.417969 0 L 5.066406 0 L 5 -1.675781 L 5 -3.839844 C 5 -5.144531 4.496094 -6.039062 2.855469 -6.039062 C 1.117188 -6.039062 0.726562 -4.953125 0.726562 -4.0625 L 0.726562 -3.960938 L 1.472656 -3.960938 C 1.472656 -4.730469 1.730469 -5.378906 2.847656 -5.378906 C 3.894531 -5.378906 4.21875 -4.855469 4.21875 -3.839844 L 4.21875 -3.683594 L 2.433594 -3.402344 C 1.472656 -3.257812 0.503906 -2.890625 0.503906 -1.605469 L 0.503906 -1.496094 C 0.503906 -0.546875 1.128906 0.121094 2.210938 0.121094 C 3.238281 0.121094 3.90625 -0.3125 4.296875 -0.824219 Z M 2.410156 -0.558594 C 1.617188 -0.558594 1.285156 -1.039062 1.285156 -1.5625 L 1.285156 -1.664062 C 1.285156 -2.332031 1.742188 -2.699219 2.5 -2.835938 L 4.21875 -3.113281 L 4.21875 -1.496094 C 4.007812 -1.148438 3.503906 -0.558594 2.410156 -0.558594 Z M 2.410156 -0.558594 "/></g></g></g><g fill="#15007b" fill-opacity="1"><g transform="translate(47.505613, 30.848978)"><g><path d="M 0.816406 0 L 1.597656 0 L 1.597656 -8.929688 L 0.816406 -8.929688 Z M 0.816406 0 "/></g></g></g><path stroke-linecap="butt" transform="matrix(-0.00000000000000012, -0.748395, 0.75, -0.000000000000000121, 4.571016, 54.615231)" fill="none" stroke-linejoin="miter" d="M 0.00260548 1.999062 L 51.122429 1.999062 " stroke="#15007b" stroke-width="4" stroke-opacity="1" stroke-miterlimit="4"/></svg>