<svg xmlns="http://www.w3.org/2000/svg" xmlns:xlink="http://www.w3.org/1999/xlink" width="50" zoomAndPan="magnify" viewBox="0 0 37.5 37.499999" height="50" preserveAspectRatio="xMidYMid meet" version="1.0"><defs><g/></defs><g fill="#004aad" fill-opacity="1"><g transform="translate(16.751528, 25.32296)"><g><path d="M 19.9375 -1.484375 L 19.90625 0 L 14.0625 0 L 10.09375 -7.4375 L 7.671875 -7.40625 L 7.671875 -1.875 L 10.296875 -1.484375 L 10.28125 0 L 0.9375 0 L 0.765625 -0.9375 C 1.328125 -1.300781 2.148438 -1.695312 3.234375 -2.125 L 3.234375 -17.453125 L 1.078125 -17.71875 L 1.109375 -19.203125 L 10.421875 -19.4375 C 12.660156 -19.4375 14.492188 -18.867188 15.921875 -17.734375 C 17.347656 -16.609375 18.0625 -15.203125 18.0625 -13.515625 C 18.0625 -12.367188 17.710938 -11.300781 17.015625 -10.3125 C 16.316406 -9.332031 15.363281 -8.585938 14.15625 -8.078125 L 18.0625 -1.71875 Z M 7.671875 -9.859375 C 8.335938 -9.722656 8.972656 -9.65625 9.578125 -9.65625 C 10.953125 -9.65625 11.945312 -10.003906 12.5625 -10.703125 C 13.175781 -11.410156 13.484375 -12.316406 13.484375 -13.421875 C 13.484375 -15.140625 12.898438 -16.382812 11.734375 -17.15625 L 7.671875 -16.71875 Z M 7.671875 -9.859375 "/></g></g></g><g fill="#004aad" fill-opacity="1"><g transform="translate(-1.487455, 25.32296)"><g><path d="M 21.796875 -18.265625 C 21.191406 -17.898438 20.40625 -17.515625 19.4375 -17.109375 L 19.328125 0 L 15.203125 0.375 L 5.984375 -13.78125 L 6.421875 -10.1875 L 6.421875 -1.875 L 8.984375 -1.484375 L 8.953125 0 L 0.9375 0 L 0.765625 -0.9375 C 1.328125 -1.300781 2.148438 -1.695312 3.234375 -2.125 L 3.234375 -17.390625 L 1.203125 -17.71875 L 1.21875 -19.203125 L 7.703125 -19.203125 L 7.671875 -19.171875 L 16.6875 -5.078125 L 16.25 -8.78125 L 16.25 -17.3125 L 13.421875 -17.71875 L 13.453125 -19.203125 L 21.625 -19.203125 Z M 21.796875 -18.265625 "/></g></g></g></svg>